%TF.GenerationSoftware,KiCad,Pcbnew,7.0.7*%
%TF.CreationDate,2023-10-15T16:54:31+01:00*%
%TF.ProjectId,mod-player,6d6f642d-706c-4617-9965-722e6b696361,rev?*%
%TF.SameCoordinates,Original*%
%TF.FileFunction,Paste,Top*%
%TF.FilePolarity,Positive*%
%FSLAX46Y46*%
G04 Gerber Fmt 4.6, Leading zero omitted, Abs format (unit mm)*
G04 Created by KiCad (PCBNEW 7.0.7) date 2023-10-15 16:54:31*
%MOMM*%
%LPD*%
G01*
G04 APERTURE LIST*
G04 Aperture macros list*
%AMRotRect*
0 Rectangle, with rotation*
0 The origin of the aperture is its center*
0 $1 length*
0 $2 width*
0 $3 Rotation angle, in degrees counterclockwise*
0 Add horizontal line*
21,1,$1,$2,0,0,$3*%
G04 Aperture macros list end*
%ADD10R,0.780000X0.550000*%
%ADD11R,0.340000X0.550000*%
%ADD12RotRect,0.550000X0.780000X225.000000*%
%ADD13RotRect,0.550000X0.340000X225.000000*%
%ADD14RotRect,0.550000X0.780000X135.000000*%
%ADD15RotRect,0.550000X0.340000X135.000000*%
%ADD16R,0.550000X0.780000*%
%ADD17R,0.550000X0.340000*%
%ADD18RotRect,0.550000X0.780000X315.000000*%
%ADD19RotRect,0.550000X0.340000X315.000000*%
%ADD20RotRect,0.550000X0.780000X45.000000*%
%ADD21RotRect,0.550000X0.340000X45.000000*%
G04 APERTURE END LIST*
D10*
%TO.C,D9*%
X357531562Y-79576920D03*
D11*
X357311562Y-78576920D03*
X357311562Y-77726920D03*
D10*
X357531562Y-76726920D03*
%TD*%
D12*
%TO.C,D12*%
X426561194Y-95770910D03*
D13*
X426009650Y-96633581D03*
X425408610Y-97234621D03*
D12*
X424545939Y-97786165D03*
%TD*%
D14*
%TO.C,D10*%
X358976690Y-97761594D03*
D15*
X358114019Y-97210050D03*
X357512979Y-96609010D03*
D14*
X356961435Y-95746339D03*
%TD*%
D10*
%TO.C,D4*%
X426015637Y-58051280D03*
D11*
X426235637Y-59051280D03*
X426235637Y-59901280D03*
D10*
X426015637Y-60901280D03*
%TD*%
D16*
%TO.C,D6*%
X390192800Y-40385933D03*
D17*
X391192800Y-40165933D03*
X392042800Y-40165933D03*
D16*
X393042800Y-40385933D03*
%TD*%
D18*
%TO.C,D5*%
X424570510Y-39891177D03*
D19*
X425433181Y-40442721D03*
X426034221Y-41043761D03*
D18*
X426585765Y-41906432D03*
%TD*%
D16*
%TO.C,D11*%
X392997800Y-97165237D03*
D17*
X391997800Y-97385237D03*
X391147800Y-97385237D03*
D16*
X390147800Y-97165237D03*
%TD*%
D10*
%TO.C,D13*%
X426015637Y-76771920D03*
D11*
X426235637Y-77771920D03*
X426235637Y-78621920D03*
D10*
X426015637Y-79621920D03*
%TD*%
D20*
%TO.C,D7*%
X356986006Y-41881861D03*
D21*
X357537550Y-41019190D03*
X358138590Y-40418150D03*
D20*
X359001261Y-39866606D03*
%TD*%
D10*
%TO.C,D8*%
X357531562Y-60856280D03*
D11*
X357311562Y-59856280D03*
X357311562Y-59006280D03*
D10*
X357531562Y-58006280D03*
%TD*%
M02*
