M48
; DRILL file {KiCad 7.0.7} date Sun Oct 15 16:54:30 2023
; FORMAT={-:-/ absolute / inch / decimal}
; #@! TF.CreationDate,2023-10-15T16:54:30+01:00
; #@! TF.GenerationSoftware,Kicad,Pcbnew,7.0.7
; #@! TF.FileFunction,Plated,1,4,PTH
FMAT,2
INCH
; #@! TA.AperFunction,Plated,PTH,ViaDrill
T1C0.0118
; #@! TA.AperFunction,Plated,PTH,ComponentDrill
T2C0.0236
; #@! TA.AperFunction,Plated,PTH,ComponentDrill
T3C0.0394
; #@! TA.AperFunction,Plated,PTH,ComponentDrill
T4C0.0472
%
G90
G05
T1
X13.942Y-4.954
X13.9932Y-2.2987
X13.9932Y-2.3243
X13.9932Y-2.3499
X13.9962Y-3.6295
X13.9962Y-3.6551
X13.9962Y-3.6807
X13.998Y-5.162
X14.0Y-4.982
X14.0Y-5.088
X14.0032Y-3.0399
X14.0032Y-3.0655
X14.0032Y-3.0911
X14.004Y-5.028
X14.044Y-3.456
X14.078Y-4.982
X14.205Y-3.622
X14.205Y-3.893
X14.2448Y-1.5693
X14.2448Y-1.5949
X14.2448Y-1.6205
X14.368Y-3.785
X14.394Y-4.1459
X14.399Y-4.17
X14.409Y-4.194
X14.438Y-4.208
X15.3815Y-3.902
X15.4071Y-3.902
X15.4327Y-3.902
X15.5Y-3.99
X15.57Y-1.554
X15.5735Y-1.5809
X15.5735Y-1.6065
X15.5735Y-1.6321
X15.614Y-3.978
X15.828Y-1.588
X15.986Y-1.588
X16.126Y-3.83
X16.166Y-3.942
X16.23Y-4.053
X16.264Y-4.034
X16.276Y-3.126
X16.278Y-3.194
X16.278Y-3.256
X16.278Y-3.32
X16.278Y-3.382
X16.2818Y-4.0138
X16.2999Y-3.9957
X16.316Y-4.828
X16.318Y-3.9776
X16.3426Y-3.3854
X16.344Y-3.492
X16.351Y-4.888
X16.352Y-4.86
X16.352Y-4.918
X16.352Y-4.98
X16.352Y-5.005
X16.424Y-4.156
X16.424Y-3.048
X16.4364Y-4.1322
X16.448Y-4.104
X16.45Y-4.68
X16.4515Y-4.7808
X16.459Y-5.094
X16.479Y-4.879
X16.485Y-5.026
X16.486Y-3.27
X16.51Y-3.762
X16.51Y-4.879
X16.5135Y-5.026
X16.514Y-3.7
X16.516Y-3.874
X16.516Y-5.17
X16.519Y-4.781
X16.541Y-4.879
X16.542Y-5.026
X16.548Y-3.432
X16.548Y-3.486
X16.548Y-3.578
X16.548Y-3.708
X16.548Y-4.006
X16.552Y-3.83
X16.552Y-4.952
X16.5666Y-4.0222
X16.568Y-3.414
X16.569Y-5.095
X16.5705Y-5.026
X16.572Y-4.879
X16.5815Y-4.7808
X16.586Y-3.534
X16.586Y-4.038
X16.5891Y-1.5553
X16.5891Y-1.5809
X16.5891Y-1.6065
X16.59Y-3.458
X16.598Y-3.792
X16.599Y-5.026
X16.603Y-4.879
X16.612Y-4.058
X16.612Y-4.95
X16.616Y-3.268
X16.62Y-2.927
X16.6209Y-3.4583
X16.6211Y-3.6988
X16.638Y-3.952
X16.642Y-4.098
X16.644Y-4.066
X16.647Y-4.799
X16.652Y-3.7
X16.654Y-3.624
X16.656Y-3.0567
X16.658Y-3.0302
X16.658Y-3.102
X16.66Y-3.79
X16.66Y-3.85
X16.66Y-3.0056
X16.6605Y-3.3741
X16.676Y-3.414
X16.6792Y-4.0872
X16.681Y-4.115
X16.696Y-3.434
X16.698Y-3.682
X16.702Y-4.424
X16.702Y-4.457
X16.702Y-4.49
X16.702Y-4.523
X16.702Y-4.556
X16.718Y-3.622
X16.722Y-3.492
X16.7226Y-3.1354
X16.725Y-5.095
X16.7325Y-3.374
X16.736Y-4.292
X16.74Y-4.654
X16.744Y-3.668
X16.746Y-3.07
X16.7618Y-2.8177
X16.764Y-4.292
X16.767Y-5.232
X16.774Y-4.572
X16.776Y-4.444
X16.776Y-4.516
X16.78Y-4.895
X16.7827Y-5.0247
X16.785Y-4.987
X16.786Y-4.801
X16.79Y-4.118
X16.798Y-3.764
X16.81Y-3.032
X16.812Y-3.702
X16.812Y-3.979
X16.824Y-3.26
X16.824Y-3.658
X16.826Y-3.234
X16.828Y-4.292
X16.83Y-2.954
X16.837Y-4.767
X16.852Y-4.292
X16.857Y-5.179
X16.8587Y-3.2
X16.862Y-3.448
X16.862Y-4.644
X16.862Y-4.698
X16.866Y-3.59
X16.866Y-4.008
X16.867Y-3.485
X16.867Y-3.526
X16.878Y-3.944
X16.879Y-5.13
X16.8795Y-2.3293
X16.8795Y-2.3549
X16.8795Y-2.3805
X16.88Y-3.2167
X16.882Y-2.21
X16.89Y-5.053
X16.892Y-2.956
X16.896Y-3.602
X16.898Y-2.81
X16.914Y-4.268
X16.919Y-3.2167
X16.921Y-3.2955
X16.922Y-3.6173
X16.936Y-3.858
X16.944Y-4.414
X16.944Y-4.482
X16.9457Y-4.6184
X16.947Y-3.6838
X16.948Y-5.045
X16.952Y-3.086
X16.958Y-3.955
X16.9655Y-3.7002
X16.968Y-2.302
X16.998Y-3.05
X17.0Y-5.047
X17.002Y-4.862
X17.004Y-3.1857
X17.006Y-2.902
X17.006Y-3.824
X17.008Y-4.056
X17.01Y-3.874
X17.01Y-3.922
X17.02Y-4.682
X17.024Y-4.518
X17.03Y-4.778
X17.04Y-4.92
X17.042Y-2.8
X17.042Y-4.33
X17.043Y-3.471
X17.0457Y-4.2703
X17.0459Y-3.5772
X17.052Y-3.548
X17.053Y-3.521
X17.056Y-5.3
X17.0607Y-3.3067
X17.062Y-4.054
X17.0662Y-3.5911
X17.078Y-4.978
X17.08Y-2.974
X17.09Y-4.862
X17.096Y-3.646
X17.098Y-4.778
X17.106Y-2.92
X17.1066Y-4.3305
X17.108Y-2.95
X17.1103Y-3.7214
X17.111Y-3.788
X17.112Y-2.892
X17.1268Y-3.3067
X17.128Y-3.246
X17.1298Y-3.1878
X17.132Y-4.918
X17.138Y-3.612
X17.157Y-5.302
X17.174Y-4.864
X17.176Y-3.142
X17.1896Y-3.5953
X17.19Y-3.242
X17.198Y-2.892
X17.203Y-5.049
X17.208Y-3.086
X17.211Y-3.448
X17.2116Y-2.9519
X17.2116Y-3.0307
X17.216Y-3.72
X17.22Y-4.28
X17.226Y-3.182
X17.228Y-4.16
X17.229Y-3.3047
X17.2293Y-3.3706
X17.2364Y-4.4257
X17.2518Y-3.5959
X17.254Y-3.232
X17.256Y-3.486
X17.261Y-4.673
X17.262Y-3.898
X17.269Y-4.526
X17.27Y-4.162
X17.274Y-4.314
X17.277Y-5.056
X17.31Y-2.996
X17.312Y-2.9
X17.312Y-3.08
X17.344Y-3.168
X17.344Y-3.244
T3
X16.449Y-2.0672
X16.449Y-2.5003
T4
X13.6236Y-3.9671
X13.6236Y-4.3608
X14.0173Y-4.0064
X14.0173Y-4.1639
X14.0173Y-4.3214
T2
G00X16.9435Y-5.1585
M15
G01X16.9435Y-5.1152
M16
G05
G00X16.9435Y-5.3132
M15
G01X16.9435Y-5.2896
M16
G05
G00X17.2837Y-5.1585
M15
G01X17.2837Y-5.1152
M16
G05
G00X17.2837Y-5.3132
M15
G01X17.2837Y-5.2896
M16
G05
T0
M30
