%TF.GenerationSoftware,KiCad,Pcbnew,7.0.7*%
%TF.CreationDate,2023-10-15T16:54:31+01:00*%
%TF.ProjectId,mod-player,6d6f642d-706c-4617-9965-722e6b696361,rev?*%
%TF.SameCoordinates,Original*%
%TF.FileFunction,Legend,Top*%
%TF.FilePolarity,Positive*%
%FSLAX46Y46*%
G04 Gerber Fmt 4.6, Leading zero omitted, Abs format (unit mm)*
G04 Created by KiCad (PCBNEW 7.0.7) date 2023-10-15 16:54:31*
%MOMM*%
%LPD*%
G01*
G04 APERTURE LIST*
%ADD10C,0.350000*%
%ADD11C,0.120000*%
G04 APERTURE END LIST*
D10*
X436056179Y-51299448D02*
X430166964Y-51307841D01*
X345674337Y-46825044D02*
X352217619Y-46815719D01*
X430163697Y-49015453D02*
X436052912Y-49007060D01*
X404285995Y-107474867D02*
X404742652Y-107518761D01*
X405168102Y-107645915D01*
X405553224Y-107847529D01*
X405888896Y-108114802D01*
X406165995Y-108438936D01*
X406375402Y-108811128D01*
X406507994Y-109222581D01*
X406554651Y-109664494D01*
X359276269Y-108744987D02*
X359335777Y-108347385D01*
X359503424Y-107997301D01*
X359761115Y-107712879D01*
X360090756Y-107512267D01*
X360474252Y-107413608D01*
X360610925Y-107406515D01*
X354628643Y-38407360D02*
X427997278Y-38302800D01*
X406554651Y-109664494D02*
X406628600Y-136144000D01*
X352217619Y-46815719D02*
X352211881Y-42789675D01*
X428078240Y-95113242D02*
X428057075Y-95544586D01*
X427993749Y-95963538D01*
X427890377Y-96367974D01*
X427749079Y-96755769D01*
X427571970Y-97124798D01*
X427361168Y-97472938D01*
X427118790Y-97798064D01*
X426846954Y-98098051D01*
X426547777Y-98370775D01*
X426223376Y-98614112D01*
X425875869Y-98825936D01*
X425507373Y-99004125D01*
X425120005Y-99146552D01*
X424715882Y-99251094D01*
X424297122Y-99315626D01*
X423865842Y-99338024D01*
X352211881Y-42789675D02*
X345668600Y-42799000D01*
X359316930Y-137276697D02*
X359276269Y-108744987D01*
X426758894Y-107312245D02*
X427156508Y-107371753D01*
X427506628Y-107539401D01*
X427791094Y-107797092D01*
X427991749Y-108126735D01*
X428090432Y-108510234D01*
X428097528Y-108646908D01*
X428097528Y-108646908D02*
X428138189Y-137178618D01*
X427997278Y-38302800D02*
X428078240Y-95113242D01*
X360273600Y-136144000D02*
X360365145Y-109730321D01*
X424349154Y-38268502D02*
X358267527Y-38362677D01*
X358934369Y-99430560D02*
X358503024Y-99409391D01*
X358084071Y-99346053D01*
X357679636Y-99242664D01*
X357291842Y-99101341D01*
X356922813Y-98924204D01*
X356574675Y-98713371D01*
X356249551Y-98470960D01*
X355949566Y-98199090D01*
X355676844Y-97899878D01*
X355433509Y-97575445D01*
X355221687Y-97227907D01*
X355043501Y-96859384D01*
X354901075Y-96471993D01*
X354796534Y-96067853D01*
X354732003Y-95649083D01*
X354709606Y-95217802D01*
X436052912Y-49007060D02*
X436056179Y-51299448D01*
X360272371Y-136173684D02*
X406628600Y-136144000D01*
X430166964Y-51307841D02*
X430163697Y-49015453D01*
X345668600Y-42799000D02*
X345674337Y-46825044D01*
X354709606Y-95217802D02*
X354628643Y-38407360D01*
X360610925Y-107406515D02*
X426758894Y-107312245D01*
X423865842Y-99338024D02*
X358934369Y-99430560D01*
X362627537Y-107534236D02*
X404285995Y-107474867D01*
X424349154Y-38268502D02*
X358267539Y-38362677D01*
X360365145Y-109730321D02*
X360410540Y-109288277D01*
X360541957Y-108876447D01*
X360750300Y-108503659D01*
X361026473Y-108178737D01*
X361361379Y-107910508D01*
X361745922Y-107707797D01*
X362171007Y-107579431D01*
X362627537Y-107534236D01*
X427494190Y-38303517D02*
X355132072Y-38406642D01*
D11*
%TO.C,D9*%
X356881562Y-80111920D02*
X356881562Y-79701920D01*
X357261562Y-80111920D02*
X356881562Y-80111920D01*
X358171562Y-79241920D02*
G75*
G03*
X358171562Y-77061920I-346708J1090000D01*
G01*
%TO.C,D12*%
X427399115Y-95852228D02*
X427109202Y-96142141D01*
X427130415Y-95583527D02*
X427399115Y-95852228D01*
X425871765Y-95555243D02*
G75*
G03*
X424330272Y-97096736I-525587J-1015906D01*
G01*
%TO.C,D10*%
X358895372Y-98599515D02*
X358605459Y-98309602D01*
X359164073Y-98330815D02*
X358895372Y-98599515D01*
X359192357Y-97072165D02*
G75*
G03*
X357650864Y-95530672I-1015906J525587D01*
G01*
%TO.C,D4*%
X426665637Y-57516280D02*
X426665637Y-57926280D01*
X426285637Y-57516280D02*
X426665637Y-57516280D01*
X425375637Y-58386280D02*
G75*
G03*
X425375637Y-60566280I346708J-1090000D01*
G01*
%TO.C,D6*%
X389657800Y-39735933D02*
X390067800Y-39735933D01*
X389657800Y-40115933D02*
X389657800Y-39735933D01*
X390527800Y-41025933D02*
G75*
G03*
X392707800Y-41025933I1090000J346708D01*
G01*
%TO.C,D5*%
X424651828Y-39053256D02*
X424941741Y-39343169D01*
X424383127Y-39321956D02*
X424651828Y-39053256D01*
X424354843Y-40580606D02*
G75*
G03*
X425896336Y-42122099I1015906J-525587D01*
G01*
%TO.C,D11*%
X393532800Y-97815237D02*
X393122800Y-97815237D01*
X393532800Y-97435237D02*
X393532800Y-97815237D01*
X392662800Y-96525237D02*
G75*
G03*
X390482800Y-96525237I-1090000J-346708D01*
G01*
%TO.C,D13*%
X426665637Y-76236920D02*
X426665637Y-76646920D01*
X426285637Y-76236920D02*
X426665637Y-76236920D01*
X425375637Y-77106920D02*
G75*
G03*
X425375637Y-79286920I346708J-1090000D01*
G01*
%TO.C,D7*%
X356148085Y-41800543D02*
X356437998Y-41510630D01*
X356416785Y-42069244D02*
X356148085Y-41800543D01*
X357675435Y-42097528D02*
G75*
G03*
X359216928Y-40556035I525587J1015906D01*
G01*
%TO.C,D8*%
X356881562Y-61391280D02*
X356881562Y-60981280D01*
X357261562Y-61391280D02*
X356881562Y-61391280D01*
X358171562Y-60521280D02*
G75*
G03*
X358171562Y-58341280I-346708J1090000D01*
G01*
%TD*%
M02*
