%TF.GenerationSoftware,KiCad,Pcbnew,7.0.7*%
%TF.CreationDate,2023-10-15T16:54:31+01:00*%
%TF.ProjectId,mod-player,6d6f642d-706c-4617-9965-722e6b696361,rev?*%
%TF.SameCoordinates,Original*%
%TF.FileFunction,Soldermask,Bot*%
%TF.FilePolarity,Negative*%
%FSLAX46Y46*%
G04 Gerber Fmt 4.6, Leading zero omitted, Abs format (unit mm)*
G04 Created by KiCad (PCBNEW 7.0.7) date 2023-10-15 16:54:31*
%MOMM*%
%LPD*%
G01*
G04 APERTURE LIST*
G04 Aperture macros list*
%AMRoundRect*
0 Rectangle with rounded corners*
0 $1 Rounding radius*
0 $2 $3 $4 $5 $6 $7 $8 $9 X,Y pos of 4 corners*
0 Add a 4 corners polygon primitive as box body*
4,1,4,$2,$3,$4,$5,$6,$7,$8,$9,$2,$3,0*
0 Add four circle primitives for the rounded corners*
1,1,$1+$1,$2,$3*
1,1,$1+$1,$4,$5*
1,1,$1+$1,$6,$7*
1,1,$1+$1,$8,$9*
0 Add four rect primitives between the rounded corners*
20,1,$1+$1,$2,$3,$4,$5,0*
20,1,$1+$1,$4,$5,$6,$7,0*
20,1,$1+$1,$6,$7,$8,$9,0*
20,1,$1+$1,$8,$9,$2,$3,0*%
G04 Aperture macros list end*
%ADD10RoundRect,0.102000X-0.141421X-0.601041X0.601041X0.141421X0.141421X0.601041X-0.601041X-0.141421X0*%
%ADD11RoundRect,0.125000X0.537500X0.125000X-0.537500X0.125000X-0.537500X-0.125000X0.537500X-0.125000X0*%
%ADD12C,2.000000*%
%ADD13RoundRect,0.150000X0.512500X0.150000X-0.512500X0.150000X-0.512500X-0.150000X0.512500X-0.150000X0*%
%ADD14RoundRect,0.200000X0.200000X0.275000X-0.200000X0.275000X-0.200000X-0.275000X0.200000X-0.275000X0*%
%ADD15RoundRect,0.225000X0.225000X0.250000X-0.225000X0.250000X-0.225000X-0.250000X0.225000X-0.250000X0*%
%ADD16RoundRect,0.200000X-0.200000X-0.275000X0.200000X-0.275000X0.200000X0.275000X-0.200000X0.275000X0*%
%ADD17RoundRect,0.150000X-0.587500X-0.150000X0.587500X-0.150000X0.587500X0.150000X-0.587500X0.150000X0*%
%ADD18RoundRect,0.225000X-0.250000X0.225000X-0.250000X-0.225000X0.250000X-0.225000X0.250000X0.225000X0*%
%ADD19RoundRect,0.200000X0.275000X-0.200000X0.275000X0.200000X-0.275000X0.200000X-0.275000X-0.200000X0*%
%ADD20RoundRect,0.225000X0.250000X-0.225000X0.250000X0.225000X-0.250000X0.225000X-0.250000X-0.225000X0*%
%ADD21RoundRect,0.200000X-0.275000X0.200000X-0.275000X-0.200000X0.275000X-0.200000X0.275000X0.200000X0*%
%ADD22C,0.900000*%
%ADD23R,1.600000X0.700000*%
%ADD24R,2.200000X1.200000*%
%ADD25R,1.400000X1.600000*%
%ADD26R,1.400000X1.200000*%
%ADD27RoundRect,0.150000X-0.150000X0.587500X-0.150000X-0.587500X0.150000X-0.587500X0.150000X0.587500X0*%
%ADD28RoundRect,0.125000X-0.537500X-0.125000X0.537500X-0.125000X0.537500X0.125000X-0.537500X0.125000X0*%
%ADD29RoundRect,0.225000X-0.225000X-0.250000X0.225000X-0.250000X0.225000X0.250000X-0.225000X0.250000X0*%
%ADD30R,1.700000X1.700000*%
%ADD31C,1.700000*%
%ADD32RoundRect,0.225000X-0.225000X-0.375000X0.225000X-0.375000X0.225000X0.375000X-0.225000X0.375000X0*%
%ADD33RoundRect,0.225000X-0.375000X0.225000X-0.375000X-0.225000X0.375000X-0.225000X0.375000X0.225000X0*%
%ADD34RoundRect,0.150000X0.587500X0.150000X-0.587500X0.150000X-0.587500X-0.150000X0.587500X-0.150000X0*%
%ADD35RoundRect,0.225000X0.225000X0.375000X-0.225000X0.375000X-0.225000X-0.375000X0.225000X-0.375000X0*%
%ADD36RoundRect,0.200000X-0.335876X-0.053033X-0.053033X-0.335876X0.335876X0.053033X0.053033X0.335876X0*%
%ADD37RoundRect,0.150000X0.625000X-0.150000X0.625000X0.150000X-0.625000X0.150000X-0.625000X-0.150000X0*%
%ADD38RoundRect,0.250000X0.650000X-0.350000X0.650000X0.350000X-0.650000X0.350000X-0.650000X-0.350000X0*%
%ADD39RoundRect,0.125000X-0.125000X0.537500X-0.125000X-0.537500X0.125000X-0.537500X0.125000X0.537500X0*%
%ADD40RoundRect,0.125000X0.468458X-0.291682X-0.291682X0.468458X-0.468458X0.291682X0.291682X-0.468458X0*%
%ADD41RoundRect,0.135000X0.135000X0.185000X-0.135000X0.185000X-0.135000X-0.185000X0.135000X-0.185000X0*%
%ADD42RoundRect,0.135000X-0.185000X0.135000X-0.185000X-0.135000X0.185000X-0.135000X0.185000X0.135000X0*%
%ADD43R,1.000000X1.600000*%
%ADD44RoundRect,0.102000X0.325000X-0.525000X0.325000X0.525000X-0.325000X0.525000X-0.325000X-0.525000X0*%
%ADD45R,1.200000X1.400000*%
%ADD46RoundRect,0.050000X0.050000X-0.387500X0.050000X0.387500X-0.050000X0.387500X-0.050000X-0.387500X0*%
%ADD47RoundRect,0.050000X0.387500X-0.050000X0.387500X0.050000X-0.387500X0.050000X-0.387500X-0.050000X0*%
%ADD48R,3.200000X3.200000*%
%ADD49R,2.000000X3.800000*%
%ADD50R,1.500000X2.000000*%
%ADD51R,3.800000X2.000000*%
%ADD52RoundRect,0.110100X0.126900X-0.411900X0.126900X0.411900X-0.126900X0.411900X-0.126900X-0.411900X0*%
%ADD53RoundRect,0.110100X-0.411900X-0.126900X0.411900X-0.126900X0.411900X0.126900X-0.411900X0.126900X0*%
%ADD54RoundRect,0.102000X0.550000X-0.550000X0.550000X0.550000X-0.550000X0.550000X-0.550000X-0.550000X0*%
%ADD55C,0.650000*%
%ADD56RoundRect,0.150000X0.150000X0.500000X-0.150000X0.500000X-0.150000X-0.500000X0.150000X-0.500000X0*%
%ADD57RoundRect,0.075000X0.075000X0.575000X-0.075000X0.575000X-0.075000X-0.575000X0.075000X-0.575000X0*%
%ADD58O,1.000000X1.600000*%
%ADD59O,1.000000X2.100000*%
%ADD60R,1.400000X4.200000*%
%ADD61RoundRect,0.150000X-0.650000X-0.150000X0.650000X-0.150000X0.650000X0.150000X-0.650000X0.150000X0*%
%ADD62R,4.200000X1.400000*%
%ADD63RoundRect,0.150000X-0.150000X0.512500X-0.150000X-0.512500X0.150000X-0.512500X0.150000X0.512500X0*%
G04 APERTURE END LIST*
D10*
%TO.C,SW4*%
X369164107Y-91906917D03*
X366229614Y-94841410D03*
X370684386Y-93427196D03*
X367749893Y-96361689D03*
%TD*%
D11*
%TO.C,U13*%
X355504300Y-92190000D03*
X355504300Y-92840000D03*
X355504300Y-93490000D03*
X355504300Y-94140000D03*
X353229300Y-94140000D03*
X353229300Y-93490000D03*
X353229300Y-92840000D03*
X353229300Y-92190000D03*
%TD*%
D12*
%TO.C,RV1*%
X346040600Y-100763800D03*
X346040600Y-110763800D03*
X356040600Y-101763800D03*
X356040600Y-105763800D03*
X356040600Y-109763800D03*
%TD*%
D13*
%TO.C,U7*%
X427735300Y-108088600D03*
X427735300Y-109038600D03*
X427735300Y-109988600D03*
X425460300Y-109988600D03*
X425460300Y-109038600D03*
X425460300Y-108088600D03*
%TD*%
D14*
%TO.C,R47*%
X415048200Y-81113800D03*
X413398200Y-81113800D03*
%TD*%
D15*
%TO.C,C14*%
X431955800Y-103001400D03*
X430405800Y-103001400D03*
%TD*%
D16*
%TO.C,R24*%
X417834400Y-116641400D03*
X419484400Y-116641400D03*
%TD*%
D17*
%TO.C,Q3*%
X416979500Y-81317800D03*
X416979500Y-79417800D03*
X418854500Y-80367800D03*
%TD*%
D18*
%TO.C,C17*%
X434532600Y-106919000D03*
X434532600Y-108469000D03*
%TD*%
D19*
%TO.C,R21*%
X428996800Y-78329200D03*
X428996800Y-76679200D03*
%TD*%
D20*
%TO.C,C6*%
X433342400Y-83989600D03*
X433342400Y-82439600D03*
%TD*%
D14*
%TO.C,R13*%
X419352800Y-95573200D03*
X417702800Y-95573200D03*
%TD*%
D21*
%TO.C,R28*%
X423595800Y-108388600D03*
X423595800Y-110038600D03*
%TD*%
%TO.C,R30*%
X429599400Y-108426800D03*
X429599400Y-110076800D03*
%TD*%
D22*
%TO.C,J2*%
X347145910Y-120250800D03*
X347145910Y-128250800D03*
D23*
X357645910Y-121050800D03*
X357645910Y-122150800D03*
X357645910Y-123250800D03*
X357645910Y-124350800D03*
X357645910Y-125450800D03*
X357645910Y-126550800D03*
X357645910Y-127650800D03*
X357645910Y-128750800D03*
X357645910Y-129850800D03*
D24*
X347545910Y-115550800D03*
D25*
X357145910Y-116450800D03*
D26*
X357145910Y-131050800D03*
D24*
X347545910Y-131050800D03*
%TD*%
D18*
%TO.C,C8*%
X438195400Y-91335000D03*
X438195400Y-92885000D03*
%TD*%
D14*
%TO.C,R14*%
X419352800Y-93943000D03*
X417702800Y-93943000D03*
%TD*%
D15*
%TO.C,C15*%
X422950400Y-93949200D03*
X421400400Y-93949200D03*
%TD*%
D11*
%TO.C,U11*%
X355428100Y-58387600D03*
X355428100Y-59037600D03*
X355428100Y-59687600D03*
X355428100Y-60337600D03*
X353153100Y-60337600D03*
X353153100Y-59687600D03*
X353153100Y-59037600D03*
X353153100Y-58387600D03*
%TD*%
D16*
%TO.C,R1*%
X414421200Y-122612800D03*
X416071200Y-122612800D03*
%TD*%
D15*
%TO.C,C9*%
X429796800Y-95115000D03*
X428246800Y-95115000D03*
%TD*%
D11*
%TO.C,U12*%
X355428100Y-77214000D03*
X355428100Y-77864000D03*
X355428100Y-78514000D03*
X355428100Y-79164000D03*
X353153100Y-79164000D03*
X353153100Y-78514000D03*
X353153100Y-77864000D03*
X353153100Y-77214000D03*
%TD*%
D27*
%TO.C,Q1*%
X424262800Y-118185100D03*
X426162800Y-118185100D03*
X425212800Y-120060100D03*
%TD*%
D16*
%TO.C,R33*%
X432857800Y-109995800D03*
X434507800Y-109995800D03*
%TD*%
D28*
%TO.C,U10*%
X361817100Y-41160000D03*
X361817100Y-40510000D03*
X361817100Y-39860000D03*
X361817100Y-39210000D03*
X364092100Y-39210000D03*
X364092100Y-39860000D03*
X364092100Y-40510000D03*
X364092100Y-41160000D03*
%TD*%
D20*
%TO.C,C7*%
X435021400Y-83989600D03*
X435021400Y-82439600D03*
%TD*%
D29*
%TO.C,C13*%
X437638600Y-83940000D03*
X439188600Y-83940000D03*
%TD*%
D19*
%TO.C,R22*%
X434513200Y-78354600D03*
X434513200Y-76704600D03*
%TD*%
D11*
%TO.C,U8*%
X421362900Y-39504800D03*
X421362900Y-40154800D03*
X421362900Y-40804800D03*
X421362900Y-41454800D03*
X419087900Y-41454800D03*
X419087900Y-40804800D03*
X419087900Y-40154800D03*
X419087900Y-39504800D03*
%TD*%
D30*
%TO.C,BT1*%
X417804800Y-52508000D03*
D31*
X417804800Y-63508000D03*
%TD*%
D29*
%TO.C,C5*%
X437624800Y-85613800D03*
X439174800Y-85613800D03*
%TD*%
D14*
%TO.C,R2*%
X416071200Y-121017200D03*
X414421200Y-121017200D03*
%TD*%
D16*
%TO.C,R43*%
X387134600Y-101401400D03*
X388784600Y-101401400D03*
%TD*%
%TO.C,R3*%
X414726000Y-128667200D03*
X416376000Y-128667200D03*
%TD*%
D32*
%TO.C,D2*%
X432556000Y-121354600D03*
X435856000Y-121354600D03*
%TD*%
D14*
%TO.C,R35*%
X415102200Y-84332600D03*
X413452200Y-84332600D03*
%TD*%
%TO.C,R52*%
X427399000Y-71570200D03*
X425749000Y-71570200D03*
%TD*%
D33*
%TO.C,D14*%
X430359800Y-112123600D03*
X430359800Y-115423600D03*
%TD*%
D34*
%TO.C,Q2*%
X426279700Y-125726800D03*
X426279700Y-127626800D03*
X424404700Y-126676800D03*
%TD*%
D35*
%TO.C,D1*%
X421169200Y-121432800D03*
X417869200Y-121432800D03*
%TD*%
D36*
%TO.C,R15*%
X366119363Y-97249363D03*
X364952637Y-96082637D03*
%TD*%
D37*
%TO.C,J3*%
X437174000Y-76979400D03*
X437174000Y-75979400D03*
X437174000Y-74979400D03*
D38*
X439699000Y-78279400D03*
X439699000Y-73679400D03*
%TD*%
D39*
%TO.C,U14*%
X390690800Y-99111100D03*
X391340800Y-99111100D03*
X391990800Y-99111100D03*
X392640800Y-99111100D03*
X392640800Y-101386100D03*
X391990800Y-101386100D03*
X391340800Y-101386100D03*
X390690800Y-101386100D03*
%TD*%
D16*
%TO.C,R7*%
X438122600Y-127261000D03*
X439772600Y-127261000D03*
%TD*%
D40*
%TO.C,U15*%
X414477563Y-101031905D03*
X414017944Y-101491524D03*
X413558324Y-101951144D03*
X413098705Y-102410763D03*
X411490037Y-100802095D03*
X411949656Y-100342476D03*
X412409276Y-99882856D03*
X412868895Y-99423237D03*
%TD*%
D19*
%TO.C,R19*%
X430587800Y-78329200D03*
X430587800Y-76679200D03*
%TD*%
D41*
%TO.C,R11*%
X437131400Y-88823800D03*
X436111400Y-88823800D03*
%TD*%
%TO.C,R12*%
X437131400Y-87589400D03*
X436111400Y-87589400D03*
%TD*%
D18*
%TO.C,C3*%
X436615400Y-91321200D03*
X436615400Y-92871200D03*
%TD*%
D21*
%TO.C,R25*%
X432982200Y-58706200D03*
X432982200Y-60356200D03*
%TD*%
D42*
%TO.C,R10*%
X424870400Y-89543200D03*
X424870400Y-90563200D03*
%TD*%
D21*
%TO.C,R40*%
X353103800Y-73901800D03*
X353103800Y-75551800D03*
%TD*%
D16*
%TO.C,R5*%
X429026200Y-125247400D03*
X430676200Y-125247400D03*
%TD*%
D19*
%TO.C,R4*%
X412576800Y-128746400D03*
X412576800Y-127096400D03*
%TD*%
%TO.C,R26*%
X416779400Y-42385800D03*
X416779400Y-40735800D03*
%TD*%
D14*
%TO.C,R6*%
X430713000Y-126893800D03*
X429063000Y-126893800D03*
%TD*%
D19*
%TO.C,R23*%
X432943000Y-78354600D03*
X432943000Y-76704600D03*
%TD*%
D14*
%TO.C,R53*%
X427399000Y-69965400D03*
X425749000Y-69965400D03*
%TD*%
D28*
%TO.C,U9*%
X395567500Y-41454800D03*
X395567500Y-40804800D03*
X395567500Y-40154800D03*
X395567500Y-39504800D03*
X397842500Y-39504800D03*
X397842500Y-40154800D03*
X397842500Y-40804800D03*
X397842500Y-41454800D03*
%TD*%
D20*
%TO.C,C18*%
X429019200Y-75072000D03*
X429019200Y-73522000D03*
%TD*%
D14*
%TO.C,R37*%
X368417000Y-39873400D03*
X366767000Y-39873400D03*
%TD*%
D43*
%TO.C,SW7*%
X417083000Y-133650600D03*
X419583000Y-133650600D03*
X422083000Y-133650600D03*
X417083000Y-131250600D03*
X419583000Y-131250600D03*
X422083000Y-131250600D03*
%TD*%
D36*
%TO.C,R17*%
X362004563Y-93154363D03*
X360837837Y-91987637D03*
%TD*%
D21*
%TO.C,R49*%
X420688600Y-82337800D03*
X420688600Y-83987800D03*
%TD*%
D28*
%TO.C,U6*%
X428739900Y-60464000D03*
X428739900Y-59814000D03*
X428739900Y-59164000D03*
X428739900Y-58514000D03*
X431014900Y-58514000D03*
X431014900Y-59164000D03*
X431014900Y-59814000D03*
X431014900Y-60464000D03*
%TD*%
D19*
%TO.C,R32*%
X430421400Y-118957200D03*
X430421400Y-117307200D03*
%TD*%
D10*
%TO.C,SW5*%
X360921407Y-83601117D03*
X357986914Y-86535610D03*
X362441686Y-85121396D03*
X359507193Y-88055889D03*
%TD*%
D44*
%TO.C,SW2*%
X438442200Y-107639303D03*
X438442200Y-103489303D03*
X436292200Y-107639303D03*
X436292200Y-103489303D03*
%TD*%
D14*
%TO.C,R34*%
X415102200Y-85988200D03*
X413452200Y-85988200D03*
%TD*%
D10*
%TO.C,SW6*%
X365042757Y-87754017D03*
X362108264Y-90688510D03*
X366563036Y-89274296D03*
X363628543Y-92208789D03*
%TD*%
D16*
%TO.C,R29*%
X425190200Y-106472200D03*
X426840200Y-106472200D03*
%TD*%
D45*
%TO.C,Y1*%
X422996400Y-89797200D03*
X422996400Y-91997200D03*
X421296400Y-91997200D03*
X421296400Y-89797200D03*
%TD*%
D46*
%TO.C,U1*%
X433393200Y-92811600D03*
X432993200Y-92811600D03*
X432593200Y-92811600D03*
X432193200Y-92811600D03*
X431793200Y-92811600D03*
X431393200Y-92811600D03*
X430993200Y-92811600D03*
X430593200Y-92811600D03*
X430193200Y-92811600D03*
X429793200Y-92811600D03*
X429393200Y-92811600D03*
X428993200Y-92811600D03*
X428593200Y-92811600D03*
X428193200Y-92811600D03*
D47*
X427355700Y-91974100D03*
X427355700Y-91574100D03*
X427355700Y-91174100D03*
X427355700Y-90774100D03*
X427355700Y-90374100D03*
X427355700Y-89974100D03*
X427355700Y-89574100D03*
X427355700Y-89174100D03*
X427355700Y-88774100D03*
X427355700Y-88374100D03*
X427355700Y-87974100D03*
X427355700Y-87574100D03*
X427355700Y-87174100D03*
X427355700Y-86774100D03*
D46*
X428193200Y-85936600D03*
X428593200Y-85936600D03*
X428993200Y-85936600D03*
X429393200Y-85936600D03*
X429793200Y-85936600D03*
X430193200Y-85936600D03*
X430593200Y-85936600D03*
X430993200Y-85936600D03*
X431393200Y-85936600D03*
X431793200Y-85936600D03*
X432193200Y-85936600D03*
X432593200Y-85936600D03*
X432993200Y-85936600D03*
X433393200Y-85936600D03*
D47*
X434230700Y-86774100D03*
X434230700Y-87174100D03*
X434230700Y-87574100D03*
X434230700Y-87974100D03*
X434230700Y-88374100D03*
X434230700Y-88774100D03*
X434230700Y-89174100D03*
X434230700Y-89574100D03*
X434230700Y-89974100D03*
X434230700Y-90374100D03*
X434230700Y-90774100D03*
X434230700Y-91174100D03*
X434230700Y-91574100D03*
X434230700Y-91974100D03*
D48*
X430793200Y-89374100D03*
%TD*%
D21*
%TO.C,R39*%
X351268200Y-58303000D03*
X351268200Y-59953000D03*
%TD*%
D20*
%TO.C,C4*%
X425006000Y-85691400D03*
X425006000Y-84141400D03*
%TD*%
D29*
%TO.C,C16*%
X421396400Y-87841200D03*
X422946400Y-87841200D03*
%TD*%
D15*
%TO.C,C21*%
X434050200Y-69956000D03*
X432500200Y-69956000D03*
%TD*%
D20*
%TO.C,C19*%
X427396200Y-75072000D03*
X427396200Y-73522000D03*
%TD*%
D16*
%TO.C,R45*%
X417157400Y-77423800D03*
X418807400Y-77423800D03*
%TD*%
D20*
%TO.C,C12*%
X429783800Y-83696400D03*
X429783800Y-82146400D03*
%TD*%
D49*
%TO.C,J5*%
X433181200Y-66535400D03*
%TD*%
D14*
%TO.C,R9*%
X426417200Y-102879200D03*
X424767200Y-102879200D03*
%TD*%
%TO.C,R38*%
X401894200Y-40199000D03*
X400244200Y-40199000D03*
%TD*%
%TO.C,R8*%
X426417200Y-104509400D03*
X424767200Y-104509400D03*
%TD*%
D29*
%TO.C,C10*%
X434666800Y-94524000D03*
X436216800Y-94524000D03*
%TD*%
D44*
%TO.C,SW3*%
X438407800Y-101183897D03*
X438407800Y-97033897D03*
X436257800Y-101183897D03*
X436257800Y-97033897D03*
%TD*%
D50*
%TO.C,U3*%
X433204800Y-112412600D03*
X435504800Y-112412600D03*
D51*
X435504800Y-118712600D03*
D50*
X437804800Y-112412600D03*
%TD*%
D52*
%TO.C,U5*%
X432806000Y-75128400D03*
X432306000Y-75128400D03*
X431806000Y-75128400D03*
X431306000Y-75128400D03*
D53*
X430621000Y-74443400D03*
X430621000Y-73943400D03*
X430621000Y-73443400D03*
X430621000Y-72943400D03*
D52*
X431306000Y-72258400D03*
X431806000Y-72258400D03*
X432306000Y-72258400D03*
X432806000Y-72258400D03*
D53*
X433491000Y-72943400D03*
X433491000Y-73443400D03*
X433491000Y-73943400D03*
X433491000Y-74443400D03*
D54*
X432056000Y-73693400D03*
%TD*%
D55*
%TO.C,J1*%
X437574800Y-130975600D03*
X431794800Y-130975600D03*
D56*
X437884800Y-129835600D03*
X437084800Y-129835600D03*
D57*
X435934800Y-129835600D03*
X434934800Y-129835600D03*
X434434800Y-129835600D03*
X433434800Y-129835600D03*
D56*
X432284800Y-129835600D03*
X431484800Y-129835600D03*
X431484800Y-129835600D03*
X432284800Y-129835600D03*
D57*
X432934800Y-129835600D03*
X433934800Y-129835600D03*
X435434800Y-129835600D03*
X436434800Y-129835600D03*
D56*
X437084800Y-129835600D03*
X437884800Y-129835600D03*
D58*
X439004800Y-134655600D03*
D59*
X439004800Y-130475600D03*
D58*
X430364800Y-134655600D03*
D59*
X430364800Y-130475600D03*
%TD*%
D29*
%TO.C,C20*%
X428864000Y-69981400D03*
X430414000Y-69981400D03*
%TD*%
D32*
%TO.C,D3*%
X417818200Y-118856800D03*
X421118200Y-118856800D03*
%TD*%
D19*
%TO.C,R31*%
X431229600Y-110076800D03*
X431229600Y-108426800D03*
%TD*%
D49*
%TO.C,J4*%
X429739800Y-66535400D03*
%TD*%
D14*
%TO.C,R41*%
X415048200Y-79465000D03*
X413398200Y-79465000D03*
%TD*%
D19*
%TO.C,R50*%
X420691000Y-80933400D03*
X420691000Y-79283400D03*
%TD*%
D18*
%TO.C,C2*%
X437499400Y-120920600D03*
X437499400Y-122470600D03*
%TD*%
D36*
%TO.C,R16*%
X357897163Y-88954563D03*
X356730437Y-87787837D03*
%TD*%
D60*
%TO.C,L2*%
X424264800Y-113933600D03*
X427964800Y-113933600D03*
%TD*%
D14*
%TO.C,R36*%
X415102200Y-82727800D03*
X413452200Y-82727800D03*
%TD*%
D20*
%TO.C,C1*%
X421112000Y-116755600D03*
X421112000Y-115205600D03*
%TD*%
D14*
%TO.C,R48*%
X418753400Y-83000200D03*
X417103400Y-83000200D03*
%TD*%
D16*
%TO.C,R44*%
X406133800Y-99491800D03*
X407783800Y-99491800D03*
%TD*%
D11*
%TO.C,U16*%
X423062100Y-75690000D03*
X423062100Y-76340000D03*
X423062100Y-76990000D03*
X423062100Y-77640000D03*
X420787100Y-77640000D03*
X420787100Y-76990000D03*
X420787100Y-76340000D03*
X420787100Y-75690000D03*
%TD*%
D20*
%TO.C,C11*%
X423177200Y-85703000D03*
X423177200Y-84153000D03*
%TD*%
D61*
%TO.C,U4*%
X424763800Y-100924200D03*
X424763800Y-99654200D03*
X424763800Y-98384200D03*
X424763800Y-97114200D03*
X431963800Y-97114200D03*
X431963800Y-98384200D03*
X431963800Y-99654200D03*
X431963800Y-100924200D03*
%TD*%
D20*
%TO.C,C22*%
X432961400Y-108464600D03*
X432961400Y-106914600D03*
%TD*%
D62*
%TO.C,L1*%
X420165200Y-127611800D03*
X420165200Y-123911800D03*
%TD*%
D63*
%TO.C,U2*%
X414385200Y-124524300D03*
X415335200Y-124524300D03*
X416285200Y-124524300D03*
X416285200Y-126799300D03*
X415335200Y-126799300D03*
X414385200Y-126799300D03*
%TD*%
D21*
%TO.C,R42*%
X351037200Y-93484200D03*
X351037200Y-91834200D03*
%TD*%
M02*
